<svg xmlns="http://www.w3.org/2000/svg" width="99" height="99" viewBox="0 0 99 99"><g><g><path fill="#e11f26" d="M88.935 88.932c-5.703 5.703-14.933 5.704-20.636 0L57.733 78.367 78.37 57.731l10.565 10.565c5.69 5.69 5.69 14.947 0 20.636zm-58.217 0c-5.689 5.689-14.946 5.69-20.636 0-5.69-5.689-5.69-14.946 0-20.636L24.77 53.608l20.636 20.636zM10.082 10.08c5.702-5.702 14.933-5.703 20.636 0l10.566 10.566L20.647 41.28 10.082 30.716c-5.703-5.703-5.703-14.933 0-20.637zm58.217 0c5.702-5.702 14.932-5.703 20.636 0 5.69 5.69 5.69 14.947 0 20.636L74.246 45.404 53.61 24.768zm-43.55 35.304l20.636-20.636 28.883 28.882L53.63 74.265 24.75 45.383zm53.6 4.123l14.688-14.689c7.95-7.95 7.95-20.888 0-28.84-7.962-7.961-20.87-7.97-28.84 0L49.51 20.666 34.82 5.977c-7.97-7.969-20.87-7.97-28.84 0-7.97 7.97-7.97 20.87 0 28.84L20.67 49.506 5.98 64.194c-7.951 7.951-7.951 20.89 0 28.84 7.95 7.95 20.888 7.952 28.84 0l14.688-14.688 14.689 14.688c7.97 7.97 20.87 7.97 28.84 0 7.95-7.95 7.95-20.889 0-28.84L78.348 49.506z"/></g></g></svg>